<svg width="24" height="24" viewBox="0 0 24 24" fill="none" xmlns="http://www.w3.org/2000/svg">
<path d="M24 0H23.2969C22.1494 0 21.1283 0.553125 20.4862 1.40625H20.4844C19.3354 1.40625 18.3136 1.96031 17.6719 2.81484V2.8125C15.7331 2.8125 14.1562 4.38975 14.1562 6.32812V9.71006L12 11.8365L9.84375 9.71006V6.32812C9.84375 4.38975 8.26688 2.8125 6.32812 2.8125V2.81484C5.68636 1.96031 4.66463 1.40625 3.51562 1.40625H3.51375C2.8717 0.553125 1.85063 0 0.703125 0H0V11.0447L4.98192 16.9688H4.21875V24H19.7812V16.9688H19.0181L24 11.0447V0ZM8.4375 6.32812V8.45906C8.0085 8.20019 7.52896 8.03635 7.03125 7.97859V4.92188C7.03125 4.7175 7.01259 4.51687 6.97922 4.32187C7.82452 4.59703 8.4375 5.39203 8.4375 6.32812ZM4.21875 2.93297C5.03719 3.22322 5.625 4.00505 5.625 4.92188V8.0962C5.29025 8.19426 4.97204 8.34183 4.68094 8.53402L4.21875 8.07234V2.93297ZM11.2969 22.5938H5.625V18.375H11.2969V22.5938ZM11.2969 16.9688H6.81938L1.40625 10.5324V1.52677C2.22469 1.81687 2.8125 2.59875 2.8125 3.51562V8.655L7.23703 13.0796L8.23172 12.0854L5.7098 9.56344C5.99011 9.42881 6.29902 9.35812 6.61927 9.35812C7.1827 9.35812 7.71239 9.5775 8.11083 9.97594L11.2969 13.1181V16.9688ZM18.375 4.92188C18.375 4.00505 18.9628 3.22322 19.7812 2.93297V8.07234L19.3191 8.53402C19.028 8.34183 18.7098 8.19426 18.375 8.0962V4.92188ZM15.5625 6.32812C15.5625 5.39208 16.1755 4.59703 17.0208 4.32187C16.9865 4.52005 16.9691 4.72076 16.9688 4.92188V7.97859C16.471 8.03635 15.9915 8.20019 15.5625 8.45906V6.32812ZM18.375 22.5938H12.7031V18.375H18.375V22.5938ZM22.5938 10.5324L17.1806 16.9688H12.7031V13.1181L15.8892 9.97594C16.2876 9.5775 16.8173 9.35812 17.3807 9.35812C17.701 9.35812 18.0099 9.42881 18.2902 9.56344L15.7683 12.0853L16.7629 13.0796L21.1875 8.65505V3.51562C21.1875 2.5988 21.7753 1.81697 22.5938 1.52672V10.5324Z" fill="#318BB8"/>
<path d="M15.5625 19.7812H16.9687V21.1875H15.5625V19.7812Z" fill="#318BB8"/>
<path d="M7.03125 19.7812H8.4375V21.1875H7.03125V19.7812Z" fill="#318BB8"/>
</svg>
