<svg width="122" height="252" viewBox="0 0 122 252" fill="none" xmlns="http://www.w3.org/2000/svg">
<path d="M45.3709 0.111816C43.8479 0.111816 42.6139 1.51869 42.6139 3.25281V26.9808C42.6139 28.716 43.8488 30.1228 45.3709 30.1228C46.8931 30.1228 48.1288 28.716 48.1288 26.9808V3.25281C48.1288 1.5177 46.8939 0.111816 45.3709 0.111816ZM12.4957 15.2997C11.7147 15.2997 10.9397 15.6754 10.3939 16.4061C9.4072 17.7279 9.54778 19.7102 10.708 20.8343L26.7911 36.4187C27.3101 36.9219 27.9445 37.1671 28.5762 37.1671C29.3573 37.1671 30.1331 36.7914 30.6781 36.0608C31.6648 34.7389 31.4981 32.7903 30.3639 31.6325C29.2297 30.4748 14.2808 16.0482 14.2808 16.0482C13.7619 15.5449 13.1275 15.2997 12.4957 15.2997ZM77.0381 15.3017C76.4064 15.3017 75.772 15.5479 75.253 16.0501L59.1691 31.6335C58.0088 32.7576 57.8682 34.7399 58.8549 36.0618C59.3999 36.7924 60.1766 37.1681 60.9568 37.1681C61.5885 37.1681 62.2229 36.9229 62.7418 36.4197L78.8258 20.8363C79.9861 19.7122 80.1267 17.7299 79.14 16.408C78.5941 15.6774 77.8192 15.3017 77.0381 15.3017ZM24.1278 48.8601C23.8788 48.8601 23.6262 48.8986 23.3746 48.9797L5.71381 54.6794C4.24808 55.1519 3.39676 56.888 3.81244 58.5579C4.15609 59.9411 5.26168 60.8437 6.46446 60.8437C6.71352 60.8437 6.96605 60.8052 7.21772 60.7241L24.8794 55.0254C26.3442 54.5528 27.1964 52.8157 26.7807 51.1469C26.4371 49.7637 25.3315 48.8611 24.1287 48.8611L24.1278 48.8601ZM66.1298 48.862C64.927 48.862 63.8223 49.7647 63.4786 51.1478C63.0629 52.8177 63.9143 54.5538 65.38 55.0264L83.0408 60.7261C83.2924 60.8071 83.545 60.8457 83.794 60.8457C84.9968 60.8457 86.1015 59.943 86.4452 58.5599C86.8609 56.891 86.0087 55.1539 84.5438 54.6813L66.883 48.9817C66.6314 48.9006 66.3788 48.862 66.1298 48.862ZM46.0088 38.1241C45.9992 38.1241 45.9897 38.1241 45.9801 38.1241C45.8977 38.1241 45.8144 38.1241 45.7302 38.1271L44.2107 38.2437C38.8736 39.4331 35.0345 42.9696 34.6387 49.1488C34.5745 50.1503 34.5363 151.882 34.5363 151.882C32.1985 147.183 27.3847 138.97 20.3937 127.016C19.3991 125.316 17.746 123.577 15.0158 122.316C13.7063 121.712 12.3699 121.564 11.1055 121.564C8.50642 121.564 5.85352 122.352 3.80376 124.742C-0.0996432 129.293 -0.637685 133.406 0.576379 138.293C7.13007 164.676 16.3531 180.763 19.9702 190.333C20.8952 192.778 41.4996 232.422 43.1849 234.546C44 236.998 50.2325 276.414 49 254.953C50.3113 255.203 107 254.455 107 254.455C108.392 254.262 111.771 231.177 112.244 228.109C120.875 172.076 121.63 167.591 121.63 167.591C122.464 159.706 121.629 133.509 121.629 133.509C121.474 131.362 121.44 130.746 120.954 129.353C119.037 123.86 117.048 121.866 111.863 121.075C111.373 121.001 110.89 120.985 110.418 120.985C106.622 120.985 103.485 122.939 101.009 126.848C101.158 117.048 100.592 113.547 100.129 112.194C98.5173 107.486 95.3905 105.44 92.6813 104.971C91.7336 104.807 90.9335 104.705 90.0743 104.65C84.3564 104.284 80.7983 107.649 79.0514 113.648C80.157 102.624 77.9025 95.8574 72.2149 93.5755C70.5426 92.9042 68.9458 92.6838 67.4905 92.6838C62.6395 92.6838 59.1161 95.9869 56.9215 102.592C56.8295 49.4206 56.8191 49.1488 56.8191 49.1488C56.5327 41.4806 51.2781 38.1231 46.007 38.1231L46.0088 38.1241Z" fill="#018EBA"/>
</svg>
