<svg width="24" height="24" viewBox="0 0 24 24" fill="none" xmlns="http://www.w3.org/2000/svg">
<path d="M5.24429 9.00424L5.24431 9.00426L5.25 9L11.25 4.5L11.25 4.50002L11.2545 4.49657C11.4707 4.33184 11.7102 4.25 12 4.25C12.2898 4.25 12.5293 4.33184 12.7455 4.49657L12.7455 4.49659L12.75 4.5L18.75 9L18.75 9.00003L18.7565 9.0048C18.9084 9.1162 19.0275 9.25656 19.1175 9.43604C19.207 9.61468 19.2504 9.79906 19.25 9.99842V10V19C19.25 19.3493 19.1343 19.6301 18.8817 19.8827C18.6291 20.1352 18.349 20.2504 18.0009 20.25H18H15C14.906 20.25 14.8629 20.2264 14.8193 20.1826C14.7742 20.1374 14.7503 20.0927 14.75 19.9989V15C14.75 14.5274 14.5816 14.0958 14.2414 13.7567C13.9027 13.4192 13.4728 13.2511 13.0018 13.25H13H11C10.5274 13.25 10.0958 13.4184 9.75675 13.7586C9.41924 14.0973 9.25111 14.5272 9.25 14.9982V15V20C9.25 20.0941 9.22635 20.138 9.18167 20.1827C9.13708 20.2273 9.09404 20.2502 9.00177 20.25H9H6C5.6503 20.25 5.37 20.1343 5.11833 19.8827C4.86673 19.6311 4.75051 19.3503 4.75 18.9995V10C4.75 9.8001 4.79374 9.61516 4.8835 9.43604C4.97369 9.25609 5.09286 9.11558 5.24429 9.00424Z" stroke="#7E7E7E" stroke-width="1.5"/>
</svg>
