<svg width="24" height="24" viewBox="0 0 24 24" fill="none" xmlns="http://www.w3.org/2000/svg">
<path d="M10.2266 17.476H13.7738C13.8893 16.3884 14.4257 15.4908 15.2963 14.5109C15.3952 14.4005 16.0243 13.7265 16.0987 13.6306C16.7167 12.8322 17.104 11.8695 17.2162 10.8535C17.3283 9.83746 17.1606 8.80933 16.7324 7.88752C16.3042 6.96571 15.6329 6.1877 14.7959 5.64309C13.9588 5.09849 12.9901 4.80943 12.0011 4.80921C11.0122 4.809 10.0433 5.09762 9.206 5.64186C8.36874 6.1861 7.69715 6.96381 7.26858 7.88543C6.84001 8.80705 6.6719 9.83511 6.7836 10.8512C6.89529 11.8673 7.28226 12.8301 7.89993 13.6287C7.97518 13.7256 8.60605 14.4005 8.70318 14.51C9.57468 15.4908 10.1111 16.3884 10.2266 17.476ZM13.7502 19.2856H10.2502V20.1904H13.7502V19.2856ZM6.53493 14.7616C5.71085 13.6969 5.19438 12.4131 5.04503 11.0582C4.89569 9.70322 5.11953 8.3322 5.69078 7.10306C6.26202 5.87391 7.15743 4.83664 8.27386 4.11072C9.39029 3.38481 10.6823 2.99978 12.0011 3C13.3199 3.00022 14.6118 3.38567 15.728 4.11196C16.8442 4.83824 17.7393 5.87581 18.3102 7.10515C18.8811 8.33448 19.1045 9.70557 18.9547 11.0605C18.8049 12.4154 18.2881 13.699 17.4637 14.7634C16.9212 15.4619 15.5002 16.5712 15.5002 17.9284V20.1904C15.5002 20.6703 15.3158 21.1306 14.9876 21.47C14.6594 21.8093 14.2143 22 13.7502 22H10.2502C9.78605 22 9.34093 21.8093 9.01274 21.47C8.68455 21.1306 8.50018 20.6703 8.50018 20.1904V17.9284C8.50018 16.5712 7.0783 15.4619 6.53493 14.7616ZM12.8752 10.2412H15.0627L11.1252 15.67V12.0508H8.93768L12.8752 6.61831V10.2421V10.2412Z" fill="#7E7E7E"/>
</svg>
