<svg width="24" height="24" viewBox="0 0 24 24" fill="none" xmlns="http://www.w3.org/2000/svg">
<path fill-rule="evenodd" clip-rule="evenodd" d="M10.2502 19.2856H13.7502V20.1904H10.2502V19.2856ZM5.04503 11.0582C5.19438 12.4131 5.71085 13.6969 6.53493 14.7616C6.66 14.9228 6.83161 15.1056 7.02171 15.3082C7.65752 15.9857 8.50018 16.8836 8.50018 17.9284V20.1904C8.50018 20.6703 8.68455 21.1306 9.01274 21.47C9.34093 21.8093 9.78605 22 10.2502 22H13.7502C14.2143 22 14.6594 21.8093 14.9876 21.47C15.3158 21.1306 15.5002 20.6703 15.5002 20.1904V17.9284C15.5002 16.8828 16.3435 15.9844 16.9789 15.3075C17.1682 15.1058 17.3391 14.9238 17.4637 14.7634C18.2881 13.699 18.8049 12.4154 18.9547 11.0605C19.1045 9.70557 18.8811 8.33448 18.3102 7.10515C17.7393 5.87581 16.8442 4.83824 15.728 4.11196C14.6118 3.38567 13.3199 3.00022 12.0011 3C10.6823 2.99978 9.39029 3.38481 8.27386 4.11072C7.15743 4.83664 6.26202 5.87391 5.69078 7.10306C5.11953 8.3322 4.89569 9.70322 5.04503 11.0582ZM11.1252 15.67L15.0627 10.2412H12.8752V6.61831L8.93768 12.0508H11.1252V15.67Z" fill="url(#paint0_linear_177_1518)"/>
<defs>
<linearGradient id="paint0_linear_177_1518" x1="5" y1="17.1928" x2="21.833" y2="6.26615" gradientUnits="userSpaceOnUse">
<stop stop-color="#00A2CB"/>
<stop offset="0.604477" stop-color="#008BB7"/>
</linearGradient>
</defs>
</svg>
