<svg width="25" height="25" viewBox="0 0 25 25" fill="none" xmlns="http://www.w3.org/2000/svg">
<path d="M21.95 11.7271H20.56C20.3783 9.83662 19.5445 8.0683 18.2016 6.72541C16.8587 5.38251 15.0904 4.54872 13.2 4.36705V2.97705C13.2 2.77814 13.121 2.58737 12.9803 2.44672C12.8397 2.30607 12.6489 2.22705 12.45 2.22705C12.2511 2.22705 12.0603 2.30607 11.9197 2.44672C11.779 2.58737 11.7 2.77814 11.7 2.97705V4.36705C9.81784 4.5578 8.06021 5.39582 6.72707 6.73807C5.39393 8.08033 4.56792 9.84363 4.39 11.7271H3C2.90151 11.7271 2.80398 11.7464 2.71299 11.7841C2.62199 11.8218 2.53931 11.8771 2.46967 11.9467C2.40003 12.0164 2.34478 12.099 2.30709 12.19C2.2694 12.281 2.25 12.3786 2.25 12.4771C2.25 12.5755 2.2694 12.6731 2.30709 12.7641C2.34478 12.8551 2.40003 12.9377 2.46967 13.0074C2.53931 13.077 2.62199 13.1323 2.71299 13.17C2.80398 13.2077 2.90151 13.2271 3 13.2271H4.39C4.57167 15.1175 5.40546 16.8858 6.74835 18.2287C8.09125 19.5716 9.85957 20.4054 11.75 20.5871V21.9771C11.75 22.176 11.829 22.3667 11.9697 22.5074C12.1103 22.648 12.3011 22.7271 12.5 22.7271C12.6989 22.7271 12.8897 22.648 13.0303 22.5074C13.171 22.3667 13.25 22.176 13.25 21.9771V20.5871C15.1397 20.4035 16.907 19.5691 18.2496 18.2266C19.5921 16.8841 20.4265 15.1168 20.61 13.2271H22C22.0985 13.2271 22.196 13.2077 22.287 13.17C22.378 13.1323 22.4607 13.077 22.5303 13.0074C22.6 12.9377 22.6552 12.8551 22.6929 12.7641C22.7306 12.6731 22.75 12.5755 22.75 12.4771C22.75 12.3786 22.7306 12.281 22.6929 12.19C22.6552 12.099 22.6 12.0164 22.5303 11.9467C22.4607 11.8771 22.378 11.8218 22.287 11.7841C22.196 11.7464 22.0985 11.7271 22 11.7271H21.95ZM12.45 19.1171C11.1367 19.1171 9.85296 18.7276 8.76101 17.998C7.66907 17.2684 6.81801 16.2314 6.31544 15.0181C5.81287 13.8048 5.68138 12.4697 5.93759 11.1817C6.19379 9.89362 6.82619 8.71048 7.75481 7.78186C8.68343 6.85324 9.86657 6.22084 11.1546 5.96464C12.4426 5.70843 13.7777 5.83993 14.991 6.34249C16.2043 6.84506 17.2413 7.69612 17.971 8.78806C18.7006 9.88001 19.09 11.1638 19.09 12.4771C19.09 14.239 18.3908 15.9289 17.1458 17.1758C15.9008 18.4226 14.212 19.1244 12.45 19.1271V19.1171Z" fill="url(#paint0_linear_17_40)"/>
<path d="M16.98 12.487C16.98 13.3854 16.7135 14.2635 16.2142 15.0104C15.7149 15.7572 15.0053 16.3391 14.1751 16.6824C13.3449 17.0257 12.4316 17.115 11.5506 16.9391C10.6697 16.7631 9.86076 16.3297 9.22622 15.6937C8.59169 15.0578 8.16009 14.2479 7.98605 13.3666C7.812 12.4853 7.90333 11.5721 8.24849 10.7427C8.59365 9.91331 9.17711 9.20495 9.92502 8.70729C10.6729 8.20964 11.5517 7.94505 12.45 7.94703C13.0458 7.94703 13.6356 8.06453 14.1859 8.29281C14.7362 8.52109 15.236 8.85566 15.6568 9.27737C16.0775 9.69908 16.411 10.1996 16.6381 10.7504C16.8651 11.3012 16.9813 11.8913 16.98 12.487Z" fill="url(#paint1_linear_17_40)"/>
<defs>
<linearGradient id="paint0_linear_17_40" x1="2.25" y1="17.5403" x2="21.9756" y2="0.163087" gradientUnits="userSpaceOnUse">
<stop stop-color="#00A2CB"/>
<stop offset="0.604477" stop-color="#008BB7"/>
</linearGradient>
<linearGradient id="paint1_linear_17_40" x1="7.90002" y1="14.7297" x2="16.637" y2="7.03283" gradientUnits="userSpaceOnUse">
<stop stop-color="#00A2CB"/>
<stop offset="0.604477" stop-color="#008BB7"/>
</linearGradient>
</defs>
</svg>
