<svg width="62" height="8" viewBox="0 0 62 8" fill="none" xmlns="http://www.w3.org/2000/svg">
<path d="M0.923594 0.2H3.42359C5.03693 0.2 5.84359 0.986667 5.84359 2.56C5.84359 3.36 5.63693 3.97 5.22359 4.39C4.81693 4.81 4.21693 5.02 3.42359 5.02H2.30359V7H0.923594V0.2ZM3.41359 3.84C4.10026 3.84 4.44359 3.41333 4.44359 2.56C4.44359 2.14667 4.36026 1.84667 4.19359 1.66C4.03359 1.47333 3.77359 1.38 3.41359 1.38H2.30359V3.84H3.41359ZM6.69227 2H8.02227V2.53C8.5956 2.19667 9.12893 1.98 9.62227 1.88V3.23C9.12227 3.33 8.65893 3.44667 8.23227 3.58L8.03227 3.65V7H6.69227V2ZM12.373 7.12C11.593 7.12 11.0296 6.92333 10.683 6.53C10.3363 6.13667 10.163 5.5 10.163 4.62C10.163 3.7 10.343 3.01333 10.703 2.56C11.0696 2.10667 11.6363 1.88 12.403 1.88C13.1096 1.88 13.643 2.07 14.003 2.45C14.3696 2.82333 14.553 3.38667 14.553 4.14L14.453 5.07H11.513C11.5263 5.30333 11.5663 5.48333 11.633 5.61C11.7063 5.73 11.8196 5.81667 11.973 5.87C12.133 5.91667 12.353 5.94 12.633 5.94C12.853 5.94 13.1163 5.93333 13.423 5.92C13.7296 5.90667 13.953 5.89333 14.093 5.88L14.373 5.85L14.393 6.84C13.6396 7.02667 12.9663 7.12 12.373 7.12ZM13.233 4.05C13.233 3.65 13.1696 3.37333 13.043 3.22C12.923 3.06 12.7063 2.98 12.393 2.98C12.073 2.98 11.8463 3.06333 11.713 3.23C11.5796 3.39 11.5096 3.66333 11.503 4.05H13.233ZM15.5106 2H16.8406V2.28C17.0873 2.14 17.3006 2.04 17.4806 1.98C17.6673 1.91333 17.8606 1.88 18.0606 1.88C18.294 1.88 18.5173 1.92 18.7306 2C18.9506 2.07333 19.1306 2.19 19.2706 2.35C19.584 2.19 19.8773 2.07333 20.1506 2C20.4306 1.92 20.714 1.88 21.0006 1.88C21.6206 1.88 22.0606 2.07 22.3206 2.45C22.5806 2.83 22.7106 3.44333 22.7106 4.29V7H21.3706V4.33C21.3706 3.88333 21.3206 3.56333 21.2206 3.37C21.1206 3.17667 20.934 3.08 20.6606 3.08C20.4673 3.08 20.2106 3.12667 19.8906 3.22L19.7406 3.27C19.7673 3.71667 19.7806 4.09667 19.7806 4.41V7H18.4406V4.43C18.4406 4.07 18.4206 3.79667 18.3806 3.61C18.3473 3.42333 18.2773 3.29 18.1706 3.21C18.0706 3.12333 17.9173 3.08 17.7106 3.08C17.4973 3.08 17.2506 3.12667 16.9706 3.22L16.8506 3.26V7H15.5106V2ZM23.8993 2H25.2393V7H23.8993V2ZM23.8993 0.00999939H25.2393V1.36H23.8993V0.00999939ZM28.0974 7.12C27.6708 7.12 27.3341 7.03333 27.0874 6.86C26.8474 6.68667 26.6774 6.42 26.5774 6.06C26.4774 5.7 26.4274 5.22 26.4274 4.62V2H27.7674V4.64C27.7674 5 27.7841 5.27 27.8174 5.45C27.8508 5.62333 27.9174 5.74667 28.0174 5.82C28.1241 5.88667 28.2841 5.92 28.4974 5.92C28.6508 5.92 28.7874 5.90667 28.9074 5.88C29.0341 5.85333 29.2074 5.80667 29.4274 5.74V2H30.7674V7H29.4374V6.72C29.1574 6.87333 28.9174 6.97667 28.7174 7.03C28.5241 7.09 28.3174 7.12 28.0974 7.12ZM32.0048 2H33.3348V2.28C33.5814 2.14 33.7948 2.04 33.9748 1.98C34.1614 1.91333 34.3548 1.88 34.5548 1.88C34.7881 1.88 35.0114 1.92 35.2248 2C35.4448 2.07333 35.6248 2.19 35.7648 2.35C36.0781 2.19 36.3714 2.07333 36.6448 2C36.9248 1.92 37.2081 1.88 37.4948 1.88C38.1148 1.88 38.5548 2.07 38.8148 2.45C39.0748 2.83 39.2048 3.44333 39.2048 4.29V7H37.8648V4.33C37.8648 3.88333 37.8148 3.56333 37.7148 3.37C37.6148 3.17667 37.4281 3.08 37.1548 3.08C36.9614 3.08 36.7048 3.12667 36.3848 3.22L36.2348 3.27C36.2614 3.71667 36.2748 4.09667 36.2748 4.41V7H34.9348V4.43C34.9348 4.07 34.9148 3.79667 34.8748 3.61C34.8414 3.42333 34.7714 3.29 34.6648 3.21C34.5648 3.12333 34.4114 3.08 34.2048 3.08C33.9914 3.08 33.7448 3.12667 33.4648 3.22L33.3448 3.26V7H32.0048V2ZM45.2407 7.12C44.3674 7.12 43.7174 6.92333 43.2907 6.53C42.864 6.13667 42.6507 5.52667 42.6507 4.7V0.2H44.0307V4.73C44.0307 5.52333 44.434 5.92 45.2407 5.92C46.0474 5.92 46.4507 5.52333 46.4507 4.73V0.2H47.8307V4.7C47.8307 5.52667 47.6174 6.13667 47.1907 6.53C46.764 6.92333 46.114 7.12 45.2407 7.12ZM50.8348 7.12C50.3948 7.12 49.8582 7.06 49.2248 6.94L48.9048 6.88L48.9448 5.76C49.7515 5.86667 50.3382 5.92 50.7048 5.92C50.9515 5.92 51.1448 5.89333 51.2848 5.84C51.4315 5.78667 51.5048 5.68667 51.5048 5.54C51.5048 5.40667 51.4348 5.31 51.2948 5.25C51.1615 5.19 50.9348 5.13333 50.6148 5.08C50.4948 5.06667 50.4115 5.05333 50.3648 5.04C50.0315 4.98 49.7582 4.90667 49.5448 4.82C49.3315 4.72667 49.1582 4.58333 49.0248 4.39C48.8915 4.19 48.8248 3.91333 48.8248 3.56C48.8248 2.99333 48.9982 2.57333 49.3448 2.3C49.6915 2.02667 50.1682 1.89 50.7748 1.89C51.1348 1.89 51.6648 1.95333 52.3648 2.08L52.6948 2.14L52.6748 3.25C51.8682 3.14333 51.2715 3.09 50.8848 3.09C50.6582 3.09 50.4782 3.11333 50.3448 3.16C50.2182 3.20667 50.1548 3.29667 50.1548 3.43C50.1548 3.57 50.2215 3.67 50.3548 3.73C50.4882 3.78333 50.7048 3.83667 51.0048 3.89L51.3548 3.95C51.8882 4.05667 52.2682 4.21667 52.4948 4.43C52.7215 4.63667 52.8348 4.97333 52.8348 5.44C52.8348 6.01333 52.6715 6.43667 52.3448 6.71C52.0182 6.98333 51.5148 7.12 50.8348 7.12ZM55.7616 7.12C54.9816 7.12 54.4183 6.92333 54.0716 6.53C53.725 6.13667 53.5516 5.5 53.5516 4.62C53.5516 3.7 53.7316 3.01333 54.0916 2.56C54.4583 2.10667 55.025 1.88 55.7916 1.88C56.4983 1.88 57.0316 2.07 57.3916 2.45C57.7583 2.82333 57.9416 3.38667 57.9416 4.14L57.8416 5.07H54.9016C54.915 5.30333 54.955 5.48333 55.0216 5.61C55.095 5.73 55.2083 5.81667 55.3616 5.87C55.5216 5.91667 55.7416 5.94 56.0216 5.94C56.2416 5.94 56.505 5.93333 56.8116 5.92C57.1183 5.90667 57.3416 5.89333 57.4816 5.88L57.7616 5.85L57.7816 6.84C57.0283 7.02667 56.355 7.12 55.7616 7.12ZM56.6216 4.05C56.6216 3.65 56.5583 3.37333 56.4316 3.22C56.3116 3.06 56.095 2.98 55.7816 2.98C55.4616 2.98 55.235 3.06333 55.1016 3.23C54.9683 3.39 54.8983 3.66333 54.8916 4.05H56.6216ZM58.8993 2H60.2293V2.53C60.8026 2.19667 61.336 1.98 61.8293 1.88V3.23C61.3293 3.33 60.866 3.44667 60.4393 3.58L60.2393 3.65V7H58.8993V2Z" fill="url(#paint0_linear_290_877)"/>
<defs>
<linearGradient id="paint0_linear_290_877" x1="60.0421" y1="-6" x2="-0.943454" y2="7.84386" gradientUnits="userSpaceOnUse">
<stop stop-color="#FCC201"/>
<stop offset="1" stop-color="#B78628"/>
</linearGradient>
</defs>
</svg>
