<svg width="24" height="24" viewBox="0 0 24 24" fill="none" xmlns="http://www.w3.org/2000/svg">
<path d="M20.2649 5.91253L20.2649 5.91259L18.6379 14.0486C18.4114 15.1812 17.8547 16.2214 17.038 17.0381C16.2213 17.8548 15.1811 18.4114 14.0485 18.6379L5.91253 20.2649L5.91247 20.2649C5.61372 20.3248 5.30482 20.31 5.01319 20.2217C4.72157 20.1335 4.45625 19.9746 4.2408 19.7591C4.02536 19.5437 3.86646 19.2784 3.77823 18.9868C3.68999 18.6951 3.67515 18.3862 3.73502 18.0875L3.73503 18.0874L5.36302 9.95144C5.58961 8.81917 6.14621 7.77929 6.96272 6.96278C7.77922 6.14627 8.81911 5.58967 9.95137 5.36309L18.0874 3.73509L18.0874 3.73508C18.3862 3.67521 18.6951 3.69005 18.9867 3.77829C19.2783 3.86652 19.5436 4.02542 19.7591 4.24086C19.9745 4.45631 20.1334 4.72163 20.2217 5.01325C20.3099 5.30488 20.3247 5.61378 20.2649 5.91253ZM13.8499 12C13.8499 12.4907 13.655 12.9612 13.3081 13.3081C12.9611 13.6551 12.4906 13.85 11.9999 13.85C11.5093 13.85 11.0387 13.6551 10.6918 13.3081C10.3449 12.9612 10.1499 12.4907 10.1499 12C10.1499 11.5094 10.3449 11.0388 10.6918 10.6919C11.0387 10.3449 11.5093 10.15 11.9999 10.15C12.4906 10.15 12.9611 10.3449 13.3081 10.6919C13.655 11.0388 13.8499 11.5094 13.8499 12ZM14.9344 14.9345C15.7127 14.1562 16.1499 13.1007 16.1499 12C16.1499 10.8994 15.7127 9.84378 14.9344 9.06551C14.1562 8.28723 13.1006 7.85 11.9999 7.85C10.8993 7.85 9.84372 8.28723 9.06545 9.06551C8.28717 9.84378 7.84994 10.8994 7.84994 12C7.84994 13.1007 8.28717 14.1562 9.06545 14.9345C9.84372 15.7128 10.8993 16.15 11.9999 16.15C13.1006 16.15 14.1562 15.7128 14.9344 14.9345Z" fill="#318BB8" stroke="#318BB8" stroke-width="0.3"/>
</svg>
