<svg width="51" height="59" viewBox="0 0 51 59" fill="none" xmlns="http://www.w3.org/2000/svg">
<g clip-path="url(#clip0_287_433)">
<path fill-rule="evenodd" clip-rule="evenodd" d="M38.5005 7.55108L37.8216 15.1088L37.1428 22.6666L33.2184 16.6989L26.0885 16.2844L32.2943 11.9176L38.5005 7.55108Z" fill="white"/>
<path fill-rule="evenodd" clip-rule="evenodd" d="M25.2013 29.0744L10.629 27.8248L12.4577 24.6574L27.4769 25.1329L25.2013 29.0744Z" fill="white"/>
<path fill-rule="evenodd" clip-rule="evenodd" d="M24.8652 30.011L24.2114 31.1434L19.5648 30.7637L18.9179 31.8841L23.5765 32.2431L12.4992 51.4295L2.79676 41.3908L8.73879 31.0989L11.8461 31.3384L12.511 30.1867L9.41139 29.9339L10.0447 28.8369L24.8649 30.0115L24.8652 30.011ZM18.4006 30.6685L13.675 30.2824L13.0132 31.4285L17.7508 31.7939L18.4006 30.6685Z" fill="white"/>
<path fill-rule="evenodd" clip-rule="evenodd" d="M26.5093 29.8296L34.8776 41.8249L36.7063 38.6575L28.7849 25.8882L26.5093 29.8296Z" fill="white"/>
<path fill-rule="evenodd" clip-rule="evenodd" d="M25.8665 30.5891L25.2127 31.7215L27.8648 35.5557L27.218 36.6761L24.5777 32.8212L13.5005 52.0076L27.0452 55.3913L32.9873 45.0994L31.2263 42.5281L31.8912 41.3765L33.6601 43.934L34.2935 42.837L25.8662 30.5896L25.8665 30.5891ZM28.5299 36.5166L31.227 40.4161L30.5653 41.5622L27.8801 37.6421L28.5299 36.5166Z" fill="white"/>
</g>
<defs>
<clipPath id="clip0_287_433">
<rect width="28" height="51" fill="white" transform="translate(26.3757 0.550781) rotate(30)"/>
</clipPath>
</defs>
</svg>
