<svg width="17" height="18" viewBox="0 0 17 18" fill="none" xmlns="http://www.w3.org/2000/svg">
<g clip-path="url(#clip0_180_2276)">
<path d="M16.3929 16.8929L14.2921 14.7922M8.5 2.92861C8.5 2.44553 8.3081 1.98225 7.96651 1.64066C7.62493 1.29908 7.16164 1.10718 6.67857 1.10718H0.60714V13.25H6.67857M8.5 2.92861V8.39289M8.5 2.92861C8.5 2.44553 8.6919 1.98225 9.03348 1.64066C9.37506 1.29908 9.83835 1.10718 10.3214 1.10718H16.3929V9.60718M12.1429 15.6786C12.948 15.6786 13.7201 15.3588 14.2894 14.7895C14.8587 14.2202 15.1786 13.448 15.1786 12.6429C15.1786 11.8378 14.8587 11.0656 14.2894 10.4963C13.7201 9.92701 12.948 9.60718 12.1429 9.60718C11.3377 9.60718 10.5656 9.92701 9.99628 10.4963C9.42697 11.0656 9.10714 11.8378 9.10714 12.6429C9.10714 13.448 9.42697 14.2202 9.99628 14.7895C10.5656 15.3588 11.3377 15.6786 12.1429 15.6786Z" stroke="#605E5E" stroke-width="1.5" stroke-linecap="round" stroke-linejoin="round"/>
</g>
<defs>
<clipPath id="clip0_180_2276">
<rect width="17" height="17" fill="white" transform="translate(0 0.5)"/>
</clipPath>
</defs>
</svg>
