<svg width="24" height="24" viewBox="0 0 24 24" fill="none" xmlns="http://www.w3.org/2000/svg">
<path d="M22.2693 18.3297C22.2393 18.3185 21.5193 18.026 19.9987 17.9547C19.3163 17.933 18.6333 17.9688 17.9568 18.0616C18.0355 17.8583 18.0615 17.6384 18.0323 17.4223C18.0032 17.2063 17.9198 17.0011 17.79 16.826L17.6812 16.6779C17.6211 16.6011 17.5334 16.5508 17.4368 16.5377C17.3402 16.5245 17.2423 16.5494 17.1638 16.6072C17.0853 16.665 17.0324 16.7511 17.0162 16.8472C17.0001 16.9434 17.0221 17.042 17.0775 17.1222L17.1862 17.2704C17.2291 17.3283 17.26 17.3941 17.2774 17.4641C17.2947 17.534 17.2981 17.6067 17.2873 17.6779C17.2765 17.7492 17.2517 17.8176 17.2145 17.8793C17.1772 17.9409 17.1281 17.9946 17.07 18.0372L16.7287 18.2885C16.6712 18.3318 16.6055 18.3631 16.5356 18.3805C16.4657 18.3979 16.393 18.4011 16.3218 18.3897C16.2507 18.379 16.1825 18.3542 16.121 18.3169C16.0595 18.2795 16.0061 18.2304 15.9637 18.1722L14.6268 16.361C14.5407 16.2443 14.5044 16.0983 14.5258 15.9548C14.5473 15.8114 14.6247 15.6824 14.7412 15.596L15.0843 15.3429C15.1417 15.2989 15.2072 15.2668 15.277 15.2485C15.3469 15.2301 15.4197 15.2259 15.4912 15.236C15.5623 15.246 15.6307 15.2703 15.6922 15.3073C15.7538 15.3444 15.8072 15.3934 15.8493 15.4516L16.1868 15.9091C16.2459 15.9887 16.3341 16.0417 16.4321 16.0565C16.5302 16.0712 16.6301 16.0465 16.71 15.9879C16.7498 15.9587 16.7835 15.922 16.8091 15.8799C16.8347 15.8377 16.8518 15.7909 16.8592 15.7421C16.8667 15.6933 16.8645 15.6436 16.8527 15.5956C16.841 15.5477 16.8198 15.5026 16.7906 15.4629L16.6031 15.206C16.6539 15.2151 16.7053 15.2214 16.7568 15.2247H16.8881C17.2887 15.2247 17.6766 15.084 17.9841 14.8272C18.2916 14.5704 18.4992 14.2138 18.5706 13.8196C18.642 13.4254 18.5728 13.0187 18.375 12.6703C18.1771 12.3219 17.8632 12.0541 17.4881 11.9135C17.7345 11.7017 17.9155 11.4241 18.0098 11.1132C18.1042 10.8023 18.108 10.4709 18.0209 10.1579C17.9337 9.84494 17.7592 9.56324 17.5177 9.34583C17.2763 9.12843 16.9779 8.98431 16.6575 8.93036C16.7374 8.88153 16.8133 8.82635 16.8843 8.76536C17.0556 8.61981 17.1961 8.44149 17.2975 8.2409C17.399 8.04031 17.4593 7.82147 17.475 7.59724C17.507 7.1454 17.3586 6.69929 17.0623 6.35663C16.7661 6.01398 16.3461 5.80271 15.8943 5.76911C15.8456 5.76911 15.7968 5.76911 15.7481 5.76911C15.8735 5.55165 15.9485 5.3088 15.9675 5.05849C15.992 4.75906 15.9373 4.45846 15.8088 4.18688C15.6804 3.9153 15.4827 3.6823 15.2357 3.51129C14.9887 3.34029 14.701 3.2373 14.4016 3.21267C14.1022 3.18804 13.8016 3.24264 13.53 3.37099C13.53 3.34661 13.53 3.32036 13.53 3.29599C13.5543 2.95997 13.4788 2.62426 13.3131 2.33097C13.1473 2.03769 12.8985 1.79992 12.5981 1.64749C12.2977 1.49507 11.9589 1.43479 11.6243 1.47422C11.2897 1.51364 10.9742 1.65102 10.7175 1.86911C10.5581 2.00552 10.4253 2.17015 10.3256 2.35474C10.3011 1.94584 10.1304 1.55937 9.84475 1.26578C9.55908 0.972199 9.17742 0.791051 8.76934 0.755364C8.54523 0.737522 8.3198 0.764295 8.1061 0.834134C7.8924 0.903973 7.69466 1.01549 7.52434 1.16224C7.24427 1.39742 7.04817 1.71722 6.96559 2.07349C6.89799 1.84616 6.7839 1.63535 6.63054 1.45444C6.47718 1.27353 6.2879 1.12645 6.0747 1.02255C5.86151 0.918642 5.62905 0.86017 5.39206 0.850839C5.15508 0.841509 4.91874 0.881523 4.69804 0.968345C4.47733 1.05517 4.27707 1.1869 4.10997 1.3552C3.94286 1.52349 3.81254 1.72467 3.72728 1.94599C3.64202 2.1673 3.60368 2.40392 3.61468 2.64083C3.62569 2.87774 3.6858 3.10978 3.79121 3.32224C3.52715 3.25666 3.25119 3.25547 2.98657 3.31877C2.72194 3.38207 2.4764 3.50801 2.27059 3.68599C2.06809 3.85917 1.90891 4.07732 1.80578 4.32301C1.70265 4.5687 1.65843 4.8351 1.67665 5.10094C1.69487 5.36677 1.77502 5.62465 1.91071 5.85397C2.0464 6.08329 2.23385 6.27768 2.45809 6.42161C2.18555 6.50407 1.93792 6.65328 1.73766 6.8557C1.5374 7.05812 1.39086 7.30734 1.31134 7.58074C1.23181 7.85415 1.22181 8.14309 1.28226 8.42134C1.3427 8.69959 1.47167 8.95834 1.65746 9.17411C1.80348 9.34503 1.98186 9.48537 2.18234 9.58705C2.38282 9.68874 2.60143 9.74977 2.82559 9.76661H2.94559C2.75079 10.0095 2.62601 10.301 2.58471 10.6096C2.5434 10.9182 2.58715 11.2323 2.71122 11.5178C2.83529 11.8034 3.03498 12.0497 3.28875 12.2301C3.54252 12.4105 3.84073 12.5182 4.15121 12.5416H4.28434C4.67688 12.5426 5.05746 12.4066 5.36059 12.1572C5.33418 12.256 5.31723 12.3571 5.30996 12.4591C5.29208 12.6841 5.31897 12.9105 5.3891 13.1251C5.45922 13.3397 5.57119 13.5382 5.71852 13.7092C5.86585 13.8803 6.04562 14.0204 6.24744 14.1216C6.44927 14.2227 6.66914 14.2828 6.89434 14.2985H7.02559C7.3254 14.2988 7.61988 14.2192 7.87871 14.0679C7.87871 14.1016 7.86934 14.1372 7.86559 14.1729C7.83147 14.6253 7.9784 15.0729 8.27409 15.4171C8.56977 15.7613 8.99001 15.974 9.44246 16.0085H9.57371C9.91406 16.0095 10.2467 15.9075 10.5281 15.716C10.495 16.1677 10.6425 16.614 10.9381 16.9571C11.2337 17.3001 11.6534 17.5119 12.105 17.546H12.2362C12.5866 17.5458 12.9284 17.4377 13.2153 17.2364C13.5021 17.0351 13.72 16.7504 13.8393 16.421C13.8819 16.555 13.9452 16.6815 14.0268 16.796L15.36 18.611C15.4604 18.7485 15.5872 18.8646 15.7331 18.9525C15.8789 19.0404 16.0408 19.0983 16.2093 19.1229C16.2713 19.1329 16.334 19.1379 16.3968 19.1379C16.5089 19.1377 16.6204 19.1232 16.7287 19.0947C16.7991 19.8832 16.9454 20.6631 17.1656 21.4235C17.5893 22.886 18.0468 23.5122 18.0656 23.5385C18.1257 23.6152 18.2134 23.6655 18.31 23.6787C18.4066 23.6919 18.5045 23.6669 18.583 23.6092C18.6615 23.5514 18.7145 23.4653 18.7306 23.3691C18.7467 23.273 18.7247 23.1743 18.6693 23.0941C18.6693 23.0941 18.2681 22.5316 17.8856 21.2191C17.8425 21.0729 17.805 20.9285 17.7693 20.786C17.8668 20.9735 17.9737 21.161 18.0881 21.3485C18.8793 22.661 19.4831 23.1391 19.5093 23.1579C19.5867 23.2188 19.6849 23.2469 19.7828 23.236C19.8807 23.2251 19.9704 23.1762 20.0325 23.0997C20.0948 23.0224 20.1239 22.9234 20.1133 22.8247C20.1028 22.7259 20.0535 22.6353 19.9762 22.5729C19.9762 22.5729 19.4587 22.1454 18.765 21.0166C19.7475 22.181 20.4187 22.5672 20.4525 22.5841C20.5387 22.6338 20.6412 22.6473 20.7374 22.6214C20.8336 22.5956 20.9155 22.5326 20.9653 22.4463C21.015 22.36 21.0284 22.2575 21.0026 22.1614C20.9767 22.0652 20.9137 21.9832 20.8275 21.9335C20.8275 21.9335 20.2293 21.5791 19.3462 20.5329C19.185 20.3454 19.0368 20.1579 18.9018 19.9704C19.1437 20.066 19.3987 20.1766 19.6518 20.3041C20.88 20.9116 21.3618 21.401 21.3656 21.4047C21.4007 21.4415 21.4428 21.4708 21.4896 21.4908C21.5363 21.5108 21.5866 21.521 21.6375 21.521C21.7105 21.5207 21.7819 21.4991 21.8429 21.4588C21.9039 21.4185 21.9517 21.3613 21.9806 21.2942C22.0095 21.2271 22.0181 21.153 22.0055 21.081C21.9928 21.009 21.9594 20.9423 21.9093 20.8891C21.8868 20.8647 21.3468 20.306 19.9837 19.6329C21.2475 20.0341 21.78 20.4297 21.7837 20.4335C21.8494 20.4836 21.9298 20.5106 22.0125 20.5104C22.0905 20.5101 22.1666 20.4855 22.23 20.44C22.2934 20.3944 22.3411 20.3302 22.3663 20.2563C22.3914 20.1824 22.3929 20.1025 22.3705 20.0277C22.3481 19.9529 22.3029 19.887 22.2412 19.8391C22.2168 19.8204 21.5981 19.3516 20.145 18.9016C19.935 18.836 19.7268 18.7779 19.5281 18.7272H19.9706C21.3393 18.7816 21.9787 19.0347 21.9843 19.0366C22.0296 19.0549 22.078 19.0645 22.1268 19.0647C22.2216 19.0774 22.3176 19.0533 22.3953 18.9975C22.4729 18.9416 22.5263 18.8583 22.5445 18.7644C22.5627 18.6705 22.5443 18.5732 22.4932 18.4925C22.442 18.4117 22.362 18.3535 22.2693 18.3297ZM17.6137 12.8922C17.6966 12.9877 17.7598 13.0987 17.7994 13.2187C17.8389 13.3388 17.8542 13.4656 17.8443 13.5916C17.836 13.7185 17.8026 13.8424 17.746 13.9562C17.6895 14.0701 17.6108 14.1715 17.5147 14.2547C17.4186 14.3379 17.3069 14.4012 17.1862 14.4409C17.0654 14.4806 16.9379 14.4959 16.8112 14.486C16.5611 14.4707 16.3268 14.3582 16.1585 14.1725C15.9902 13.9867 15.9012 13.7426 15.9105 13.4921C15.9198 13.2417 16.0267 13.0048 16.2083 12.8321C16.3899 12.6594 16.6319 12.5646 16.8825 12.5679H16.9556C17.0813 12.5769 17.204 12.6107 17.3167 12.6673C17.4293 12.724 17.5296 12.8023 17.6118 12.8979L17.6137 12.8922ZM17.1018 9.99724C17.2051 10.1168 17.2774 10.26 17.3122 10.4141C17.347 10.5683 17.3433 10.7286 17.3014 10.881C17.2595 11.0334 17.1807 11.1731 17.072 11.2877C16.9633 11.4024 16.828 11.4886 16.6781 11.5385C16.5282 11.5885 16.3683 11.6008 16.2125 11.5742C16.0567 11.5477 15.9099 11.4832 15.785 11.3865C15.66 11.2897 15.5609 11.1637 15.4962 11.0195C15.4316 10.8753 15.4035 10.7174 15.4143 10.5597C15.4327 10.3185 15.5414 10.093 15.7186 9.9283C15.8958 9.76358 16.1286 9.6717 16.3706 9.67099H16.4456C16.6986 9.68987 16.9341 9.80696 17.1018 9.99724ZM15.7687 6.51349H15.8418C15.9976 6.52755 16.1476 6.57946 16.2787 6.6647C16.4098 6.74993 16.5182 6.86592 16.5942 7.00256C16.6703 7.1392 16.7119 7.29236 16.7153 7.44872C16.7187 7.60508 16.6838 7.75991 16.6138 7.89973C16.5437 8.03955 16.4405 8.16013 16.3132 8.25099C16.1859 8.34185 16.0383 8.40023 15.8833 8.42105C15.7283 8.44187 15.5706 8.42451 15.4238 8.37047C15.277 8.31644 15.1457 8.22736 15.0412 8.11099C14.9585 8.01546 14.8957 7.90441 14.8564 7.78433C14.8172 7.66425 14.8022 7.53754 14.8125 7.41161C14.8286 7.16868 14.9363 6.94091 15.1137 6.77423C15.2912 6.60756 15.5253 6.51438 15.7687 6.51349ZM13.6443 4.19599C13.8176 4.0457 14.0394 3.96313 14.2687 3.96349H14.3418C14.5959 3.98303 14.8318 4.10235 14.9981 4.29536C15.1222 4.43908 15.2009 4.61637 15.2242 4.80482C15.2476 4.99326 15.2145 5.1844 15.1292 5.35405C15.0439 5.52369 14.9102 5.66424 14.745 5.7579C14.5798 5.85156 14.3906 5.89413 14.2012 5.88023C14.0119 5.86633 13.8309 5.79658 13.6811 5.6798C13.5314 5.56302 13.4197 5.40446 13.36 5.22418C13.3004 5.04389 13.2956 4.84998 13.3462 4.66696C13.3968 4.48394 13.5006 4.32004 13.6443 4.19599ZM11.2256 2.44099C11.3694 2.31909 11.5459 2.24222 11.733 2.21996C11.9202 2.19771 12.1098 2.23105 12.2782 2.31582C12.4465 2.4006 12.5862 2.53307 12.6798 2.6967C12.7733 2.86033 12.8167 3.04789 12.8043 3.23599C12.7849 3.4901 12.6654 3.7261 12.472 3.89207C12.2786 4.05804 12.0272 4.14038 11.7731 4.12099C11.519 4.10159 11.283 3.98205 11.117 3.78865C10.951 3.59526 10.8687 3.34385 10.8881 3.08974C10.8978 2.96504 10.9322 2.84351 10.9891 2.73216C11.0461 2.62081 11.1245 2.52185 11.22 2.44099H11.2256ZM8.00621 1.73599C8.17948 1.5857 8.40123 1.50313 8.63059 1.50349H8.70559C8.83166 1.51309 8.9546 1.54743 9.0674 1.60455C9.1802 1.66166 9.28064 1.74044 9.36299 1.83637C9.44535 1.93231 9.508 2.04352 9.54737 2.16367C9.58675 2.28382 9.60207 2.41054 9.59246 2.53661C9.58286 2.66268 9.54852 2.78563 9.49141 2.89842C9.43429 3.01122 9.35551 3.11166 9.25958 3.19402C9.16365 3.27637 9.05243 3.33902 8.93228 3.3784C8.81213 3.41777 8.68541 3.43309 8.55934 3.42349C8.36876 3.41124 8.18616 3.34243 8.03489 3.22585C7.88362 3.10927 7.77057 2.95022 7.71017 2.76904C7.64978 2.58787 7.6448 2.3928 7.69586 2.20877C7.74693 2.02475 7.85172 1.86014 7.99684 1.73599H8.00621ZM4.70059 1.83911C4.87385 1.68883 5.09561 1.60625 5.32496 1.60661H5.39434C5.58467 1.61992 5.76675 1.68954 5.91741 1.8066C6.06808 1.92367 6.18052 2.0829 6.24045 2.26404C6.30037 2.44519 6.30507 2.64006 6.25394 2.82388C6.20282 3.00771 6.09818 3.17217 5.95333 3.29636C5.80849 3.42055 5.62998 3.49886 5.44051 3.52133C5.25103 3.5438 5.05916 3.50941 4.88929 3.42253C4.71941 3.33566 4.57921 3.20023 4.48652 3.03346C4.39382 2.86669 4.35281 2.67612 4.36871 2.48599C4.37868 2.36162 4.41314 2.24044 4.47009 2.12943C4.52705 2.01842 4.60538 1.91975 4.70059 1.83911ZM2.42621 4.91036C2.44461 4.66911 2.55325 4.44364 2.73048 4.27892C2.90771 4.1142 3.14051 4.02233 3.38246 4.02161H3.45746C3.71113 4.04127 3.94667 4.16062 4.11254 4.35354C4.2784 4.54647 4.36108 4.79725 4.34246 5.05099C4.3336 5.17696 4.29969 5.29989 4.2427 5.41258C4.18571 5.52527 4.1068 5.62544 4.01059 5.70724C3.86662 5.83148 3.689 5.91017 3.50025 5.93333C3.3115 5.95648 3.12012 5.92305 2.9504 5.83729C2.78067 5.75152 2.64024 5.61728 2.54692 5.45158C2.4536 5.28589 2.41158 5.09622 2.42621 4.90661V4.91036ZM2.88184 9.01849C2.6358 8.99683 2.40752 8.88136 2.24429 8.69599C2.08106 8.51063 1.9954 8.26958 2.00504 8.02277C2.01468 7.77597 2.11889 7.54234 2.29608 7.37027C2.47327 7.1982 2.70986 7.10089 2.95684 7.09849H3.02996C3.28408 7.11763 3.52017 7.23694 3.68632 7.43016C3.85246 7.62338 3.93505 7.87469 3.9159 8.1288C3.89676 8.38291 3.77745 8.61901 3.58423 8.78515C3.39101 8.9513 3.1397 9.03388 2.88559 9.01474L2.88184 9.01849ZM4.90684 11.5685C4.78955 11.6695 4.64959 11.7406 4.49887 11.7758C4.34816 11.811 4.19117 11.8093 4.04128 11.7707C3.89138 11.7321 3.75304 11.6579 3.63803 11.5543C3.52302 11.4508 3.43476 11.3209 3.38077 11.1759C3.32678 11.0308 3.30866 10.8749 3.32796 10.7213C3.34725 10.5677 3.40339 10.4211 3.49159 10.2939C3.57978 10.1667 3.69742 10.0628 3.83448 9.99087C3.97153 9.91897 4.12394 9.88127 4.27871 9.88099H4.35371C4.54305 9.89578 4.72377 9.96628 4.8731 10.0836C5.02243 10.201 5.13368 10.3599 5.19283 10.5403C5.25199 10.7208 5.25639 10.9147 5.2055 11.0977C5.1546 11.2807 5.05068 11.4445 4.90684 11.5685ZM7.64434 13.3235C7.52699 13.4245 7.38694 13.4957 7.23614 13.5309C7.08534 13.5661 6.92827 13.5643 6.77832 13.5256C6.62837 13.4869 6.49 13.4126 6.37501 13.3089C6.26002 13.2052 6.17182 13.0752 6.11794 12.93C6.06407 12.7848 6.04611 12.6288 6.0656 12.4751C6.08509 12.3215 6.14146 12.1749 6.22989 12.0478C6.31831 11.9207 6.43618 11.8168 6.57343 11.7451C6.71068 11.6734 6.86324 11.636 7.01809 11.636H7.08184C7.20771 11.6455 7.33046 11.6797 7.44309 11.7367C7.55572 11.7937 7.656 11.8723 7.7382 11.9681C7.82041 12.0639 7.88291 12.1749 7.92214 12.2949C7.96138 12.4149 7.97656 12.5414 7.96684 12.6672C7.95917 12.7925 7.92671 12.915 7.87135 13.0277C7.81599 13.1403 7.73883 13.2409 7.64434 13.3235ZM10.1906 15.0485C10.0733 15.1506 9.93298 15.2227 9.78169 15.2586C9.63041 15.2946 9.47266 15.2934 9.32197 15.255C9.17127 15.2167 9.03212 15.1424 8.91644 15.0384C8.80075 14.9345 8.71198 14.8041 8.65774 14.6584C8.60349 14.5127 8.58539 14.356 8.60498 14.2017C8.62457 14.0474 8.68126 13.9002 8.7702 13.7727C8.85915 13.6451 8.97769 13.541 9.11567 13.4693C9.25366 13.3976 9.40697 13.3605 9.56246 13.361H9.63746C9.8268 13.3758 10.0075 13.4463 10.1569 13.5636C10.3062 13.681 10.4174 13.8399 10.4766 14.0203C10.5357 14.2008 10.5401 14.3947 10.4892 14.5777C10.4384 14.7607 10.3344 14.9245 10.1906 15.0485ZM12.8512 16.5879C12.7558 16.6703 12.645 16.7331 12.5252 16.7727C12.4055 16.8122 12.2791 16.8278 12.1533 16.8184C12.0275 16.8089 11.9049 16.7748 11.7923 16.7179C11.6798 16.6609 11.5796 16.5824 11.4975 16.4866C11.377 16.3474 11.2991 16.1765 11.2731 15.9942C11.2471 15.8119 11.274 15.6261 11.3507 15.4587C11.4273 15.2913 11.5505 15.1495 11.7055 15.0502C11.8606 14.9509 12.0409 14.8982 12.225 14.8985H12.2981C12.4887 14.9107 12.6713 14.9795 12.8225 15.0961C12.9738 15.2127 13.0869 15.3718 13.1473 15.5529C13.2076 15.7341 13.2126 15.9292 13.1616 16.1132C13.1105 16.2972 13.0057 16.4618 12.8606 16.586L12.8512 16.5879ZM13.8937 15.4872C13.8343 15.2095 13.7052 14.9514 13.5187 14.7372C13.2458 14.4201 12.866 14.214 12.4514 14.1581C12.0368 14.1021 11.616 14.2001 11.2687 14.4335C11.2907 14.1237 11.228 13.8138 11.0873 13.5369C10.9466 13.26 10.7333 13.0266 10.4701 12.8617C10.207 12.6968 9.90392 12.6066 9.59341 12.6008C9.28291 12.5949 8.97666 12.6736 8.70746 12.8285C8.71317 12.7944 8.71692 12.7599 8.71871 12.7254C8.74444 12.3923 8.67192 12.0589 8.51011 11.7666C8.34831 11.4743 8.10434 11.2359 7.8084 11.0808C7.51245 10.9257 7.17754 10.8609 6.8451 10.8942C6.51267 10.9276 6.19732 11.0577 5.93809 11.2685C5.96298 11.1701 5.97929 11.0697 5.98684 10.9685C6.02096 10.516 5.87403 10.0685 5.57834 9.72429C5.28266 9.38009 4.86242 9.16736 4.40996 9.13286C4.36996 9.13286 4.33059 9.13286 4.29184 9.13286C4.441 8.94553 4.5492 8.72898 4.60945 8.49722C4.66969 8.26545 4.68064 8.02363 4.64159 7.78737C4.60254 7.55111 4.51435 7.32567 4.38273 7.12562C4.25111 6.92557 4.07898 6.75536 3.87746 6.62599C4.10683 6.55865 4.3191 6.44293 4.49996 6.28661C4.78866 6.03924 4.98669 5.70271 5.06275 5.33021C5.13881 4.95771 5.08857 4.57049 4.91996 4.22974C5.0113 4.25079 5.10405 4.2652 5.19746 4.27286H5.32871C5.7152 4.27148 6.0899 4.13963 6.3921 3.89869C6.69429 3.65775 6.90628 3.32183 6.99371 2.94536C7.06136 3.17556 7.17775 3.3885 7.33496 3.56974C7.47936 3.74343 7.65715 3.88636 7.8578 3.99007C8.05845 4.09378 8.27789 4.15615 8.50309 4.17349H8.63434C8.94234 4.17183 9.24419 4.08719 9.50815 3.92848C9.77212 3.76977 9.98843 3.54286 10.1343 3.27161C10.159 3.6848 10.3325 4.07506 10.6228 4.37015C10.913 4.66523 11.3004 4.84516 11.7131 4.87661H11.8443C12.092 4.87735 12.3366 4.82291 12.5606 4.71724V4.79036C12.5265 5.24285 12.6734 5.69036 12.9691 6.03456C13.2648 6.37876 13.685 6.59149 14.1375 6.62599H14.2687H14.28C14.1437 6.86538 14.0672 7.13412 14.057 7.40938C14.0468 7.68465 14.1032 7.95831 14.2213 8.20714C14.3395 8.45597 14.5159 8.67261 14.7357 8.83866C14.9555 9.00472 15.2121 9.11529 15.4837 9.16099C15.4038 9.20983 15.3279 9.265 15.2568 9.32599C15.0314 9.51955 14.8602 9.76853 14.7603 10.0484C14.6603 10.3282 14.635 10.6293 14.6869 10.9219C14.7388 11.2145 14.866 11.4885 15.056 11.717C15.246 11.9455 15.4923 12.1205 15.7706 12.2247C15.454 12.4982 15.2487 12.8783 15.1938 13.2931C15.1388 13.7078 15.238 14.1283 15.4725 14.4747C15.1741 14.4606 14.88 14.55 14.64 14.7279L14.2987 14.9791C14.1245 15.1092 13.9853 15.2806 13.8937 15.4779V15.4872Z" fill="#318BB8"/>
</svg>
